# xmcd
# 
# Track frame offsets:
#     150
#     19537
#     40730
#     58842
#     88112
#     106800
#     133555
#     159982
#     173765
# 
# Disc length: 2567
# 
# Revision: 18
# Processed by: cddbd v1.5.2PL0 Copyright (c) Steve Scherf et al.
# Submitted via: fre:ac v1.0.31
# 
DISCID=660a0509
DTITLE=The Hooters - One Way Home
DYEAR=1987
DGENRE=Rock
TTITLE0=Satellite
TTITLE1=Karla with a K
TTITLE2=Johnny B
TTITLE3=Graveyard Waltz
TTITLE4=Fightin' on the Same Side
TTITLE5=One Way Home
TTITLE6=Washington's Day
TTITLE7=Hard Rockin Summer
TTITLE8=Engine 999
EXTD=YEAR: 1987
EXTT0=
EXTT1=
EXTT2=
EXTT3=
EXTT4=
EXTT5=
EXTT6=
EXTT7=
EXTT8=
PLAYORDER=
